<svg width="16" height="18" viewBox="0 0 16 18" fill="none" xmlns="http://www.w3.org/2000/svg">
<path d="M13.0536 17.2789C12.0736 18.2289 11.0036 18.0789 9.97355 17.6289C8.88355 17.1689 7.88355 17.1489 6.73355 17.6289C5.29355 18.2489 4.53355 18.0689 3.67355 17.2789C-1.20645 12.2489 -0.486448 4.58887 5.05355 4.30887C6.40355 4.37887 7.34355 5.04887 8.13355 5.10887C9.31355 4.86887 10.4436 4.17887 11.7036 4.26887C13.2136 4.38887 14.3536 4.98887 15.1036 6.06887C11.9836 7.93887 12.7236 12.0489 15.5836 13.1989C15.0136 14.6989 14.2736 16.1889 13.0436 17.2889L13.0536 17.2789ZM8.03355 4.24887C7.88355 2.01887 9.69355 0.178871 11.7736 -0.00112915C12.0636 2.57887 9.43355 4.49887 8.03355 4.24887Z" fill="black"/>
</svg>
