<svg width="20" height="20" viewBox="0 0 20 20" fill="none" xmlns="http://www.w3.org/2000/svg">
<path d="M19.0281 13.15C19.7405 11.1104 19.7405 8.88959 19.0281 6.85L19 6.775C18.3345 4.92132 17.1128 3.31836 15.5019 2.18516C13.891 1.05197 11.9695 0.443817 9.99999 0.443817C8.03045 0.443817 6.10896 1.05197 4.49808 2.18516C2.8872 3.31836 1.66553 4.92132 0.999989 6.775L0.971864 6.85C0.259501 8.88959 0.259501 11.1104 0.971864 13.15L0.999989 13.225C1.66456 15.079 2.8854 16.6826 4.49569 17.8167C6.10598 18.9507 8.02716 19.5598 9.99669 19.5609C11.9662 19.5619 13.888 18.9548 15.4995 17.8224C17.111 16.69 18.3335 15.0877 19 13.2344L19.0281 13.15ZM7.34686 13.5625H12.6531C12.1187 15.2781 11.2094 16.8156 9.99999 17.9969C8.79061 16.8156 7.88124 15.2781 7.34686 13.5625ZM7.06561 12.4375C6.72802 10.83 6.72802 9.16997 7.06561 7.5625H12.9344C13.272 9.16997 13.272 10.83 12.9344 12.4375H7.06561ZM1.56249 10C1.56054 9.17439 1.68058 8.35302 1.91874 7.5625H5.91249C5.61242 9.17365 5.61242 10.8264 5.91249 12.4375H1.91874C1.68058 11.647 1.56054 10.8256 1.56249 10ZM12.6531 6.4375H7.34686C7.88124 4.72188 8.79061 3.18438 9.99999 2.00313C11.2094 3.18438 12.1187 4.72188 12.6531 6.4375ZM14.0969 7.5625H18.0812C18.5565 9.15275 18.5565 10.8472 18.0812 12.4375H14.0969C14.3844 10.8252 14.3844 9.17478 14.0969 7.5625ZM17.65 6.4375H13.8344C13.3537 4.65901 12.4572 3.02023 11.2187 1.65625C12.6028 1.85842 13.915 2.40112 15.0375 3.23564C16.16 4.07016 17.0577 5.17037 17.65 6.4375ZM8.78124 1.65625C7.54282 3.02023 6.64631 4.65901 6.16561 6.4375H2.34999C2.9423 5.17037 3.84 4.07016 4.96251 3.23564C6.08502 2.40112 7.3972 1.85842 8.78124 1.65625ZM2.34999 13.5625H6.16561C6.64827 15.343 7.54445 16.9844 8.78124 18.3531C7.39735 18.1468 6.08597 17.6015 4.96388 16.7656C3.8418 15.9298 2.94384 14.8294 2.34999 13.5625ZM11.2187 18.3531C12.4555 16.9844 13.3517 15.343 13.8344 13.5625H17.65C17.0561 14.8294 16.1582 15.9298 15.0361 16.7656C13.914 17.6015 12.6026 18.1468 11.2187 18.3531Z" fill="black"/>
</svg>
